<svg width="829" height="546" viewBox="0 0 829 546" fill="none" xmlns="http://www.w3.org/2000/svg">
<path opacity="0.5" d="M78.7132 43.3192V443.616" stroke="#27FB6B" stroke-width="30"/>
<path opacity="0.5" d="M292.377 28.1343C292.377 28.1343 268.575 81.591 208.307 182.732C148.039 283.872 35.5113 383.148 20.2245 300.06C13.5311 263.68 12.9911 241.059 20.2245 204.817C48.1156 65.0721 292.377 454.657 292.377 454.657V28.1343ZM292.377 28.1343L405.774 162.121C405.774 162.121 405.668 158.937 422.485 182.732C450.408 222.239 381.901 247.513 384.288 204.817C386.676 162.121 577.659 6.0501 550.205 26.7551M550.205 26.7551L564.529 486.406M550.205 26.7551C582.434 -9.13245 763.435 64.8434 778.191 257.271C791.382 429.303 612.934 511.031 564.529 486.406M564.529 486.406C424.391 467.382 431.179 257.275 551.399 277.976C551.399 277.976 778.468 288.723 814 543" stroke="#27FB6B" stroke-width="30"/>
</svg>
